<svg width="215.35125" height="70" xmlns="http://www.w3.org/2000/svg" data-name="Layer 1">
 <title>navigator</title>

 <g>
  <title>Layer 1</title>
  <path id="svg_70" fill="#3f3d56" d="m2301.05708,1622.35171l0.33966,0a6.45333,6.45333 0 0 1 6.45333,6.45333l0,0a6.45333,6.45333 0 0 1 -6.45333,6.45333l-0.33966,0a0,0 0 0 1 0,0l0,-12.90666a0,0 0 0 1 0,0z"/>
  <g id="svg_79">
   <path id="svg_59" fill="#e6e6e6" d="m215.6654,39.05104a36.40182,36.82643 0 0 0 -71.42102,-7.7643c-0.44098,-0.01601 -0.88162,-0.03394 -1.32648,-0.03394a36.4106,36.83531 0 0 0 -34.92694,26.45045a25.72624,26.02632 0 0 0 -30.52616,7.6817l113.54982,0a24.62234,24.90955 0 0 0 24.67655,-25.79078q-0.01095,-0.27115 -0.02577,-0.54313z"/>
   <g transform="matrix(0.673371, 0.083644, -0.0826795, 0.681225, 72.1718, 58.1924)" id="svg_77">
    <rect id="svg_60" fill="#3f3d56" transform="rotate(-179.969, 963.83, 661.333)" height="3.08772" width="19.45264" y="1323.6478" x="1874.80628"/>
    <path id="svg_61" fill="#6c63ff" d="m-106.8901,-3.8692l4.01354,0.92846l152.53335,0.08154l1.37161,-3.19572a32.257,32.257 0 0 0 2.37148,-17.44193c-0.65694,-4.4136 -2.30315,-8.79914 -6.04213,-10.70394l-6.76889,-45.08441l-84.38886,-0.151l-32.64974,26.33408s-15.40137,-0.27686 -23.7685,10.13972a24.44959,24.44959 0 0 0 -5.1143,13.46591l-0.33022,5.41878l-1.22734,20.20851z"/>
    <circle id="svg_62" fill="#3f3d56" r="18.83508" cy="-4.62327" cx="-73.38794"/>
    <circle id="svg_63" fill="#ccc" r="9.9132" cy="-4.62327" cx="-73.38794"/>
    <circle id="svg_64" fill="#3f3d56" r="18.83508" cy="-4.57359" cx="19.55242"/>
    <circle id="svg_65" fill="#ccc" r="9.9132" cy="-4.57359" cx="19.55242"/>
    <polygon id="svg_66" fill="#fff" points="-63.47728854417801,-56.17978446185589 -17.91430026292801,-56.16077201068401 -12.352288544178009,-56.16077201068401 -2.9622743725776672,-56.15378348529339 -2.9622743725776672,-56.83878104388714 -2.9552553296089172,-65.09677664935589 -2.9482973217964172,-74.36877982318401 -9.196282684803009,-74.36877982318401 -14.758294403553009,-74.37476126849651 -24.61028414964676,-74.38178031146526 -30.17229586839676,-74.38178031146526 -41.54625827074051,-74.38876883685589 -63.47728854417801,-56.17978446185589 "/>
    <polygon id="svg_67" fill="#fff" points="4.451727092266083,-56.14676444232464 28.53174465894699,-56.13376395404339 28.53772610425949,-60.85877005755901 28.53772610425949,-69.11676566302776 28.54474514722824,-74.34876029193401 25.01874417066574,-74.34876029193401 19.45673245191574,-74.35577933490276 4.458746135234833,-74.36176078021526 4.451727092266083,-56.14676444232464 "/>
    <rect id="svg_68" fill="#3f3d56" transform="rotate(-179.969, 867.86, 588.077)" height="5.86667" width="3.08772" y="1212.3872" x="1739.0249"/>
    <rect id="svg_69" fill="#3f3d56" transform="rotate(90.0306, 563.865, -872.211)" height="5.86667" width="3.08772" y="-257.6536" x="1385.47648"/>
    <path id="svg_71" fill="#3f3d56" d="m-105.66276,-24.07771a9.97473,9.97473 0 0 0 5.44452,-18.88469a24.44959,24.44959 0 0 0 -5.1143,13.46591l-0.33022,5.41878z"/>
    <polygon id="svg_72" fill="#f2f2f2" points="-14.758294403553009,-74.37476126849651 -2.9622743725776672,-56.83878104388714 -2.9552553296089172,-65.09677664935589 -9.196282684803009,-74.36877982318401 -14.758294403553009,-74.37476126849651 "/>
    <polygon id="svg_73" fill="#f2f2f2" points="19.45673245191574,-74.35577933490276 28.53772610425949,-60.85877005755901 28.53772610425949,-69.11676566302776 25.01874417066574,-74.34876029193401 19.45673245191574,-74.35577933490276 "/>
    <polygon id="svg_74" fill="#f2f2f2" points="-30.17229586839676,-74.38178031146526 -17.91430026292801,-56.16077201068401 -12.352288544178009,-56.16077201068401 -24.61028414964676,-74.38178031146526 -30.17229586839676,-74.38178031146526 "/>
   </g>
  </g>
 </g>
</svg>